HIERARCHY
ROOT Hips
{
  OFFSET 5.72205e-005 65.662 3.42586
  CHANNELS 6 Xposition Yposition Zposition Zrotation Xrotation Yrotation
  JOINT Chest
  {
    OFFSET 0 8.7983 -4.7612
    CHANNELS 3 Zrotation Xrotation Yrotation
    JOINT Chest2
    {
      OFFSET 0 8.0291 0.4195
      CHANNELS 3 Zrotation Xrotation Yrotation
      JOINT Chest3
      {
        OFFSET 0 9.9351 -2.2114
        CHANNELS 3 Zrotation Xrotation Yrotation
        JOINT Neck
        {
          OFFSET 0 22.3885 -0.4656
          CHANNELS 3 Zrotation Xrotation Yrotation
          JOINT Head
          {
            OFFSET -0.0001 12.643 3.4389
            CHANNELS 3 Zrotation Xrotation Yrotation
            End Site
            {
              OFFSET 0.0001 17.6655 0.5274
            }
          }
        }
        JOINT LeftCollar
        {
          OFFSET 2.2603 21.606 7.4023
          CHANNELS 3 Zrotation Xrotation Yrotation
          JOINT LeftShoulder
          {
            OFFSET 13.5163 -1.1332 -5.0146
            CHANNELS 3 Zrotation Xrotation Yrotation
            JOINT LeftElbow
            {
              OFFSET -0.0995 -28.05 -0.2431
              CHANNELS 3 Zrotation Xrotation Yrotation
              JOINT LeftWrist
              {
                OFFSET 0.0679 -23.3996 -0.1402
                CHANNELS 3 Zrotation Xrotation Yrotation
                JOINT LeftFinger1
                {
                  OFFSET 0.7932 -9.069 2.5189
                  CHANNELS 3 Zrotation Xrotation Yrotation
                  JOINT LeftFinger11
                  {
                    OFFSET -0.8272 -3.3923 0.5977
                    CHANNELS 3 Zrotation Xrotation Yrotation
                    JOINT LeftFinger12
                    {
                      OFFSET -0.5649 -2.3158 0.4082
                      CHANNELS 3 Zrotation Xrotation Yrotation
                      End Site
                      {
                        OFFSET -0.4919 -1.6479 0.2673
                      }
                    }
                  }
                }
                JOINT LeftFinger2
                {
                  OFFSET 0.9159 -9.2044 0.2193
                  CHANNELS 3 Zrotation Xrotation Yrotation
                  JOINT LeftFinger21
                  {
                    OFFSET 0.0117 -4.1944 -0.0248
                    CHANNELS 3 Zrotation Xrotation Yrotation
                    JOINT LeftFinger22
                    {
                      OFFSET 0.0071 -2.3249 -0.0142
                      CHANNELS 3 Zrotation Xrotation Yrotation
                      End Site
                      {
                        OFFSET -0.1475 -2.0882 0.0028
                      }
                    }
                  }
                }
                JOINT LeftFinger3
                {
                  OFFSET 0.6113 -8.7231 -2.0637
                  CHANNELS 3 Zrotation Xrotation Yrotation
                  JOINT LeftFinger31
                  {
                    OFFSET -0.1927 -3.8059 -0.2383
                    CHANNELS 3 Zrotation Xrotation Yrotation
                    JOINT LeftFinger32
                    {
                      OFFSET -0.1091 -2.1688 -0.1362
                      CHANNELS 3 Zrotation Xrotation Yrotation
                      End Site
                      {
                        OFFSET -0.2358 -1.9176 -0.0906
                      }
                    }
                  }
                }
                JOINT LeftFinger4
                {
                  OFFSET -0.6151 -8.0947 -3.5641
                  CHANNELS 3 Zrotation Xrotation Yrotation
                  JOINT LeftFinger41
                  {
                    OFFSET -0.4882 -2.341 -0.6462
                    CHANNELS 3 Zrotation Xrotation Yrotation
                    JOINT LeftFinger42
                    {
                      OFFSET -0.3575 -1.7167 -0.4742
                      CHANNELS 3 Zrotation Xrotation Yrotation
                      End Site
                      {
                        OFFSET -0.4187 -1.5237 -0.3496
                      }
                    }
                  }
                }
                JOINT LeftFinger0
                {
                  OFFSET -1.42 -1.8761 1.4223
                  CHANNELS 3 Zrotation Xrotation Yrotation
                  JOINT LeftFinger01
                  {
                    OFFSET -1.1471 -3.4929 2.6334
                    CHANNELS 3 Zrotation Xrotation Yrotation
                    JOINT LeftFinger02
                    {
                      OFFSET -0.823 -2.3 1.6571
                      CHANNELS 3 Zrotation Xrotation Yrotation
                      End Site
                      {
                        OFFSET -0.5822 -1.6914 1.1582
                      }
                    }
                  }
                }
              }
            }
          }
        }
        JOINT RightCollar
        {
          OFFSET -2.2603 21.606 7.4023
          CHANNELS 3 Zrotation Xrotation Yrotation
          JOINT RightShoulder
          {
            OFFSET -13.5187 -1.1334 -5.0155
            CHANNELS 3 Zrotation Xrotation Yrotation
            JOINT RightElbow
            {
              OFFSET 0.0994 -28.0499 -0.2431
              CHANNELS 3 Zrotation Xrotation Yrotation
              JOINT RightWrist
              {
                OFFSET -0.0679 -23.3996 -0.1402
                CHANNELS 3 Zrotation Xrotation Yrotation
                JOINT RightFinger1
                {
                  OFFSET -0.7932 -9.0691 2.5189
                  CHANNELS 3 Zrotation Xrotation Yrotation
                  JOINT RightFinger11
                  {
                    OFFSET 0.8272 -3.3923 0.5977
                    CHANNELS 3 Zrotation Xrotation Yrotation
                    JOINT RightFinger12
                    {
                      OFFSET 0.565 -2.3158 0.4082
                      CHANNELS 3 Zrotation Xrotation Yrotation
                      End Site
                      {
                        OFFSET 0.4919 -1.6479 0.2673
                      }
                    }
                  }
                }
                JOINT RightFinger2
                {
                  OFFSET -0.916 -9.2044 0.2193
                  CHANNELS 3 Zrotation Xrotation Yrotation
                  JOINT RightFinger21
                  {
                    OFFSET -0.0117 -4.1944 -0.0248
                    CHANNELS 3 Zrotation Xrotation Yrotation
                    JOINT RightFinger22
                    {
                      OFFSET -0.0071 -2.3249 -0.0142
                      CHANNELS 3 Zrotation Xrotation Yrotation
                      End Site
                      {
                        OFFSET 0.1475 -2.0882 0.0028
                      }
                    }
                  }
                }
                JOINT RightFinger3
                {
                  OFFSET -0.6113 -8.7231 -2.0637
                  CHANNELS 3 Zrotation Xrotation Yrotation
                  JOINT RightFinger31
                  {
                    OFFSET 0.1927 -3.8059 -0.2383
                    CHANNELS 3 Zrotation Xrotation Yrotation
                    JOINT RightFinger32
                    {
                      OFFSET 0.1091 -2.1688 -0.1362
                      CHANNELS 3 Zrotation Xrotation Yrotation
                      End Site
                      {
                        OFFSET 0.2358 -1.9176 -0.0906
                      }
                    }
                  }
                }
                JOINT RightFinger4
                {
                  OFFSET 0.6151 -8.0947 -3.564
                  CHANNELS 3 Zrotation Xrotation Yrotation
                  JOINT RightFinger41
                  {
                    OFFSET 0.4882 -2.341 -0.6462
                    CHANNELS 3 Zrotation Xrotation Yrotation
                    JOINT RightFinger42
                    {
                      OFFSET 0.3574 -1.7166 -0.4742
                      CHANNELS 3 Zrotation Xrotation Yrotation
                      End Site
                      {
                        OFFSET 0.4187 -1.5237 -0.3496
                      }
                    }
                  }
                }
                JOINT RightFinger0
                {
                  OFFSET 1.4199 -1.8761 1.4221
                  CHANNELS 3 Zrotation Xrotation Yrotation
                  JOINT RightFinger01
                  {
                    OFFSET 1.1472 -3.4929 2.6336
                    CHANNELS 3 Zrotation Xrotation Yrotation
                    JOINT RightFinger02
                    {
                      OFFSET 0.8229 -2.3 1.6571
                      CHANNELS 3 Zrotation Xrotation Yrotation
                      End Site
                      {
                        OFFSET 0.5822 -1.6914 1.1582
                      }
                    }
                  }
                }
              }
            }
          }
        }
      }
    }
  }
  JOINT RightHip
  {
    OFFSET -9.412 3.9771 -0.7758
    CHANNELS 3 Zrotation Xrotation Yrotation
    JOINT RightKnee
    {
      OFFSET -0.7531 -40.938 0
      CHANNELS 3 Zrotation Xrotation Yrotation
      JOINT RightAnkle
      {
        OFFSET 0 -40.1986 0
        CHANNELS 3 Zrotation Xrotation Yrotation
        JOINT RightToe
        {
          OFFSET 0 -4.4182 9.239
          CHANNELS 3 Zrotation Xrotation Yrotation
          End Site
          {
            OFFSET 0 0 6.1981
          }
        }
      }
    }
  }
  JOINT LeftHip
  {
    OFFSET 9.4119 3.9773 -0.7758
    CHANNELS 3 Zrotation Xrotation Yrotation
    JOINT LeftKnee
    {
      OFFSET 0.7532 -40.9383 0
      CHANNELS 3 Zrotation Xrotation Yrotation
      JOINT LeftAnkle
      {
        OFFSET 0 -40.1986 0
        CHANNELS 3 Zrotation Xrotation Yrotation
        JOINT LeftToe
        {
          OFFSET 0 -4.4182 9.239
          CHANNELS 3 Zrotation Xrotation Yrotation
          End Site
          {
            OFFSET 0 0 6.1981
          }
        }
      }
    }
  }
}
MOTION
Frames:	4
Frame Time:	0.0333333
-35.868 30.0051 4.35038 -7.01671e-015 7.01671e-015 180 0.156417 0.575915 -0.571577 0.318597 1.15024 -1.14481 0.318599 1.15024 -1.14482 11.0071 35.0041 -6.36747 6.66452e-007 -0.790883 5.30415e-007 -20.9712 -13.0429 -12.5402 49.0117 -58.1709 18.9447 -59.181 -0.692652 -38.6535 -33.2004 -2.67812 -4.16385 -3.67752e-015 3.32964e-015 -0 3.19917e-006 -7.73686e-006 -4.56698e-006 6.4605e-016 -4.94477e-015 -0 -3.67752e-015 3.32964e-015 -0 -0.0128627 0.00231989 8.40848e-005 7.95139e-016 9.08421e-006 -3.18055e-015 -3.67752e-015 3.32964e-015 -0 -0.0160812 0.00298207 0.000860726 -2.31915e-006 -3.35656e-006 6.16379e-007 -3.67752e-015 3.32964e-015 -0 -0.0125923 0.00312969 0.00281014 -4.96962e-016 2.88238e-015 -6.36111e-015 -3.67752e-015 3.32964e-015 -0 3.19917e-006 -7.73686e-006 -4.56698e-006 6.4605e-016 -4.94477e-015 -0 -12.5505 -13.2014 -5.54123 -37.6527 -76.0085 -10.2228 71.3033 -35.9207 6.26147 48.8008 -14.8268 -10.1345 1.68609e-008 5.505e-006 1.70543e-006 3.18055e-015 -9.93923e-016 -3.97569e-016 -1.68607e-008 4.92675e-006 -1.70543e-006 1.68609e-008 5.505e-006 1.70543e-006 0.0129413 0.00231652 -8.3289e-005 -1.14751e-006 4.92077e-006 -1.8517e-006 1.68609e-008 5.505e-006 1.70543e-006 0.0163374 0.00305872 -0.000871213 -8.51901e-006 -2.86441e-005 2.11201e-006 1.68609e-008 5.505e-006 1.70543e-006 0.0145743 0.00366444 -0.0032658 1.67305e-008 1.86608e-006 1.70543e-006 1.68609e-008 5.505e-006 1.70543e-006 3.18055e-015 -9.93923e-016 -3.97569e-016 -1.68607e-008 4.92675e-006 -1.70543e-006 -79.0121 -69.4726 -80.0937 2.20493 56.4738 0.776369 4.73254 33.308 -11.4201 -2.20695e-032 -3.97569e-016 -3.18055e-015 79.3172 -69.1459 80.9161 -2.20734 56.4622 -0.762717 -3.99421 33.3435 10.694 -1.98785e-016 -1.19271e-015 -6.36111e-015 
-35.868 30.0051 4.35038 -7.01671e-015 7.01671e-015 180 0.156417 0.575915 -0.571577 0.318597 1.15024 -1.14481 0.318599 1.15024 -1.14482 11.0071 35.0041 -6.36747 6.66452e-007 -0.790883 5.30415e-007 -20.9712 -13.0429 -12.5402 49.0117 -58.1709 18.9447 -59.181 -0.692652 -38.6535 -33.2004 -2.67813 -4.16386 -4.62174e-015 5.46658e-015 -0 -8.5155e-007 6.55315e-006 2.66718e-006 1.2424e-015 -6.95746e-015 -9.54166e-015 -4.62174e-015 5.46658e-015 -0 -0.0128635 0.00233955 8.75521e-005 3.18055e-015 -1.04362e-015 -3.18055e-015 -4.62174e-015 5.46658e-015 -0 -0.0160029 0.00297048 0.000852139 -1.98785e-015 -6.95746e-016 3.18055e-015 -4.62174e-015 5.46658e-015 -0 -0.0125711 0.00310474 0.00283395 -2.79544e-008 4.60002e-006 1.28315e-006 -4.62174e-015 5.46658e-015 -0 -8.5155e-007 6.55315e-006 2.66718e-006 1.2424e-015 -6.95746e-015 -9.54166e-015 -12.5505 -13.2014 -5.54123 -37.6527 -76.0085 -10.2228 71.3033 -35.9207 6.26147 48.8008 -14.8268 -10.1345 1.68609e-008 5.505e-006 1.70543e-006 3.18055e-015 -9.93923e-016 -3.97569e-016 -1.68607e-008 4.92675e-006 -1.70543e-006 1.68609e-008 5.505e-006 1.70543e-006 0.0129413 0.00231652 -8.3289e-005 -1.14751e-006 4.92077e-006 -1.8517e-006 1.68609e-008 5.505e-006 1.70543e-006 0.0163374 0.00305872 -0.000871213 -8.51901e-006 -2.86441e-005 2.11201e-006 1.68609e-008 5.505e-006 1.70543e-006 0.0145743 0.00366444 -0.0032658 1.67305e-008 1.86608e-006 1.70543e-006 1.68609e-008 5.505e-006 1.70543e-006 3.18055e-015 -9.93923e-016 -3.97569e-016 -1.68607e-008 4.92675e-006 -1.70543e-006 -79.0121 -69.4726 -80.0938 2.20487 56.4738 0.77639 4.73254 33.308 -11.4201 -8.49815e-007 -4.20017e-007 -6.35469e-008 79.3172 -69.1459 80.9161 -2.20738 56.4622 -0.762692 -3.99419 33.3435 10.694 -4.24996e-007 2.08032e-007 -3.09599e-008 
-35.868 30.0053 4.35025 -7.01671e-015 7.01671e-015 180 0.156417 0.575915 -0.571577 0.318597 1.15024 -1.14481 0.318599 1.15024 -1.14482 10.7314 32.8629 -5.87259 2.33929e-006 0.137985 -3.6727e-007 -20.9712 -13.0429 -12.5402 49.0116 -58.1711 18.9446 -59.2387 -1.00151 -38.6553 -33.2004 -2.67816 -4.16384 2.68359e-015 -4.5472e-015 3.18055e-015 2.3159e-006 -1.08922e-006 -6.24656e-007 -2.38542e-015 -8.10048e-015 6.36111e-015 2.68359e-015 -4.5472e-015 3.18055e-015 -0.0128648 0.00230934 8.13709e-005 -3.09748e-006 7.40448e-006 1.53636e-006 2.68359e-015 -4.5472e-015 3.18055e-015 -0.0160219 0.00297397 0.000862546 2.68359e-015 -7.95139e-016 3.18055e-015 2.68359e-015 -4.5472e-015 3.18055e-015 -0.0126083 0.00309892 0.00282622 2.316e-006 3.2593e-006 -6.24544e-007 2.68359e-015 -4.5472e-015 3.18055e-015 2.3159e-006 -1.08922e-006 -6.24656e-007 -2.38542e-015 -8.10048e-015 6.36111e-015 -12.5505 -13.2014 -5.54123 -37.6527 -76.0085 -10.2228 71.3163 -35.7011 6.27081 48.8008 -14.8269 -10.1345 -2.26829e-006 4.94469e-006 -1.98508e-006 -4.17851e-006 -2.0188e-005 2.13668e-006 -6.36111e-015 7.95139e-016 -7.95139e-016 -2.26829e-006 4.94469e-006 -1.98508e-006 0.0129789 0.0023133 -8.96214e-005 -3.18055e-015 1.49089e-015 -3.97569e-016 -2.26829e-006 4.94469e-006 -1.98508e-006 0.0162907 0.00301986 -0.000866281 -9.54166e-015 -9.93923e-017 -3.97569e-016 -2.26829e-006 4.94469e-006 -1.98508e-006 0.0145821 0.00368145 -0.00326413 9.54166e-015 5.96354e-016 3.97569e-016 -2.26829e-006 4.94469e-006 -1.98508e-006 -4.17851e-006 -2.0188e-005 2.13668e-006 -6.36111e-015 7.95139e-016 -7.95139e-016 -79.1605 -69.2217 -80.6455 2.20405 56.4651 0.765401 4.186 33.3407 -10.8794 -3.97569e-016 -7.95139e-016 3.18055e-015 79.4365 -68.9138 81.4087 -2.20665 56.4542 -0.752718 -3.49074 33.3688 10.1955 -4.25031e-007 -2.6577e-008 -3.06746e-008 
-35.8679 30.0055 4.35013 -7.01671e-015 7.01671e-015 180 0.156417 0.575915 -0.571577 0.318597 1.15024 -1.14481 0.318599 1.15024 -1.14482 10.525 31.1002 -5.48269 2.83467e-006 0.898693 -5.44841e-007 -20.9712 -13.0429 -12.5402 49.0117 -58.1709 18.9447 -59.2862 -1.25434 -38.6573 -33.2005 -2.67818 -4.16382 -2.25432e-006 1.06529e-006 -1.13308e-006 1.04375e-005 -2.03081e-005 7.51693e-006 -6.95746e-016 -1.78906e-015 -0 -2.25432e-006 1.06529e-006 -1.13308e-006 -0.0128321 0.0023207 9.22031e-005 1.04357e-005 -2.03885e-005 7.51736e-006 -2.25432e-006 1.06529e-006 -1.13308e-006 -0.0159956 0.00297259 0.000852865 -2.34786e-006 1.12699e-006 1.93068e-006 -2.25432e-006 1.06529e-006 -1.13308e-006 -0.0125589 0.00310651 0.00282589 -2.08724e-015 1.21756e-015 3.18055e-015 -2.25432e-006 1.06529e-006 -1.13308e-006 1.04375e-005 -2.03081e-005 7.51693e-006 -6.95746e-016 -1.78906e-015 -0 -12.5505 -13.2014 -5.54123 -37.6527 -76.0085 -10.2228 71.3269 -35.5213 6.27835 48.8008 -14.8269 -10.1345 3.18055e-015 -4.96962e-016 7.95139e-016 8.27607e-033 -5.96354e-016 7.95139e-016 1.44831e-032 -6.95746e-016 1.19271e-015 3.18055e-015 -4.96962e-016 7.95139e-016 0.0129496 0.0023285 -8.0975e-005 3.18055e-015 2.98177e-016 3.97569e-016 3.18055e-015 -4.96962e-016 7.95139e-016 0.016384 0.00303024 -0.000866796 -3.18055e-015 -2.98177e-016 -0 3.18055e-015 -4.96962e-016 7.95139e-016 0.0144979 0.00363133 -0.00324756 3.18055e-015 1.20265e-014 -0 3.18055e-015 -4.96962e-016 7.95139e-016 8.27607e-033 -5.96354e-016 7.95139e-016 1.44831e-032 -6.95746e-016 1.19271e-015 -79.2759 -69.0161 -81.0913 2.20333 56.4578 0.756542 3.7384 33.3641 -10.4367 7.95139e-016 3.97569e-016 -0 79.5295 -68.7236 81.8074 -2.20604 56.4476 -0.744657 -3.07852 33.3866 9.78723 4.25059e-007 2.77352e-008 3.04415e-008 
